<svg xmlns="http://www.w3.org/2000/svg" viewBox="0 0 48 48">
  <defs><linearGradient id="bg" x1="0%" y1="0%" x2="100%" y2="100%"><stop offset="0%" style="stop-color:#4f46e5"/><stop offset="100%" style="stop-color:#7c3aed"/></linearGradient></defs>
  <rect width="48" height="48" rx="12" fill="url(#bg)"/>
  <path d="M35.5 24.8c-.3-2.5-1.3-4.5-2.7-5.9-1.8-1.9-4-2.8-6.5-2.4-2.5.4-4.5 2-5.9 4.3-2 .3-3.5 1.2-4 3-.5 2 .3 4 2.2 5 .7.4 1.5.5 2.4.5h14.5c.8 0 1.6-.3 2.3-.8 1.5-1.1 2.3-2.6 1.7-4.5-.2-.7-.5-1.3-1.1-1.8-.3-.3-.6-.4-1-.4z" fill="rgba(255,255,255,0.95)"/>
</svg>