<svg xmlns="http://www.w3.org/2000/svg" viewBox="0 0 1024 1024">
  <rect width="1024" height="1024" rx="200" ry="200" fill="#0a1f4d"/>
  <g transform="translate(0,128)">
    <path fill="#00bdff" d="M675.8,297.2c-126.4,30.5-237.5,237.4-347.1,251-130.9,16.2-158.2-152-49.4-182.7,70.6-20,116.3,29.4,163.6,72.5l43.6-41c-43.8-56.6-111.4-104.9-185.8-104.3-167.1,1.4-216.3,246-54.5,309.5,167.3,65.7,275.5-134.6,390.3-214.2,98.5-68.3,220.9,18.5,161.1,115.6-51.2,83.1-162.5,37.4-213.4-21.7l-4.2-4.4-44.3,44c77.5,93.7,224.9,139,309.9,26.9,90.8-119.8-28.2-285.2-169.8-251.1z"/>
    <path fill="#216ab4" d="M510.8,374.1c46.9-40.2,93-95.5,172.9-109.5,11.2-2,22.2-4.4,33.2-5.2-41.5-69.8-117.6-122.1-204.7-122.1s-166,49.6-207.5,119.4c95.1-3.4,158.2,62.5,206,117.3z"/>
  </g>
</svg>
