<svg xmlns="http://www.w3.org/2000/svg" viewBox="0 0 16 16">
  <defs><linearGradient id="bg" x1="0%" y1="0%" x2="100%" y2="100%"><stop offset="0%" style="stop-color:#4f46e5"/><stop offset="100%" style="stop-color:#7c3aed"/></linearGradient></defs>
  <rect width="16" height="16" rx="4" fill="url(#bg)"/>
  <path d="M11.7 8.2c-.1-.8-.4-1.4-.9-1.9C10 5.5 8.9 5.2 7.6 5.5 6.3 5.8 5.5 6.6 5 7.7 4.1 7.8 3.5 8.3 3.3 9c-.2.8.1 1.5.8 1.9.3.2.6.2 1 .2h6.3c.3 0 .6-.1.9-.3.6-.4.9-1 .7-1.8-.1-.3-.2-.6-.4-.8h.1z" fill="rgba(255,255,255,0.95)"/>
</svg>